<!DOCTYPE html>
<svg version="1.1" xmlns="http://www.w3.org/2000/svg" xmlns:xlink="http://www.w3.org/1999/xlink" x="0px" y="0px" viewBox="0 0 101.124 108.413" xml:space="preserve">
<path fill-rule="evenodd" clip-rule="evenodd" fill="#FFFFFF" d="M49.097,46.095l-1.062,0.891l9.013,10.745l1.063-0.891l3.072,3.663
	c0.541,0.439,1.159,0.8,1.908,1.016c4.295,0.305,7.685,3.884,7.686,8.257c0,4.573-3.705,8.279-8.275,8.279
	c-4.572-0.001-8.278-3.708-8.279-8.281c0-0.272,0.017-0.542,0.043-0.809c-0.068-0.685-0.266-1.287-0.541-1.838l-3.252-3.876
	l1.117-0.938l-9.014-10.745l-1.117,0.938L15.853,21.98l0.036-0.03l12.183-0.92l0.004,0.005l16.313-1.237l9.716-11.639L6.239,7.433
	L0,0.711L70.538,0l3.479,2.641l-24.11,24.598l-15.463,1.389L49.097,46.095z M62.5,73.734c2.187,0,3.958-1.772,3.958-3.959
	c0-2.188-1.772-3.961-3.959-3.961c-2.186,0-3.958,1.772-3.958,3.96C58.542,71.961,60.313,73.734,62.5,73.734z"/>
<path fill-rule="evenodd" clip-rule="evenodd" fill="#A82030" d="M62.44,97.373c4.867,0.001,9.439-1.258,13.412-3.467l-9.6-11.443
	l8.086-6.787l9.596,11.438v-0.001l0.752,0.897l6.168,7.354l-0.01,0.008l0.254,0.302c-7.088,7.825-17.328,12.739-28.717,12.738
	c-21.398-0.002-38.748-17.357-38.75-38.764c-0.001-9.412,3.354-18.04,8.93-24.754l7.354,8.766
	c-3.229,4.526-5.127,10.065-5.127,16.049C34.79,84.987,47.171,97.372,62.44,97.373z M90.087,69.717
	c0-15.275-12.381-27.661-27.652-27.662c-4.252,0-8.278,0.96-11.877,2.675l-7.354-8.767c5.652-3.225,12.195-5.068,19.169-5.068
	c21.399,0.002,38.747,17.357,38.751,38.764c0,5.312-1.068,10.372-3,14.981l-8.455-10.104C89.944,72.971,90.089,71.361,90.087,69.717
	z"/>
</svg>
