<!DOCTYPE html>
<svg version="1.1" xmlns="http://www.w3.org/2000/svg" xmlns:xlink="http://www.w3.org/1999/xlink" x="0px" y="0px" viewBox="0 0 144.346 108.413" xml:space="preserve">
<path fill-rule="evenodd" clip-rule="evenodd" fill="#FFFFFF" d="M49.097,46.095l-1.062,0.891l9.013,10.745l1.063-0.891l3.072,3.663
	c0.541,0.439,1.159,0.8,1.908,1.016c4.295,0.305,7.685,3.884,7.686,8.257c0,4.573-3.705,8.279-8.275,8.279
	c-4.572-0.001-8.278-3.708-8.279-8.281c0-0.272,0.017-0.542,0.043-0.809c-0.068-0.685-0.266-1.287-0.541-1.838l-3.252-3.876
	l1.117-0.938l-9.014-10.745l-1.117,0.938L15.853,21.98l0.036-0.03l12.183-0.92l0.004,0.005l16.313-1.237l9.716-11.639L6.239,7.433
	L0,0.711L70.538,0l3.479,2.641l-24.11,24.598l-15.463,1.389L49.097,46.095z M62.5,73.734c2.187,0,3.958-1.772,3.958-3.959
	c0-2.188-1.772-3.961-3.959-3.961c-2.186,0-3.958,1.772-3.958,3.96C58.542,71.961,60.313,73.734,62.5,73.734z"/>
<path fill-rule="evenodd" clip-rule="evenodd" fill="#A82030" d="M62.44,97.373c4.867,0.001,9.439-1.258,13.412-3.467l-9.6-11.443
	l8.086-6.787l9.596,11.438v-0.001l0.752,0.897l6.168,7.354l-0.01,0.008l0.254,0.302c-7.088,7.825-17.328,12.739-28.717,12.738
	c-21.398-0.002-38.748-17.357-38.75-38.764c-0.001-9.412,3.354-18.04,8.93-24.754l7.354,8.766
	c-3.229,4.526-5.127,10.065-5.127,16.049C34.79,84.987,47.171,97.372,62.44,97.373z M90.087,69.717
	c0-15.275-12.381-27.661-27.652-27.662c-4.252,0-8.278,0.96-11.877,2.675l-7.354-8.767c5.652-3.225,12.195-5.068,19.169-5.068
	c21.399,0.002,38.747,17.357,38.751,38.764c0,5.312-1.068,10.372-3,14.981l-8.455-10.104C89.944,72.971,90.089,71.361,90.087,69.717
	z"/>
<g>
	<g>
		<path fill-rule="evenodd" clip-rule="evenodd" fill="#FFFFFF" d="M75.286,21.192h1.079v-2.761h1.561v2.761h1.08v-2.761h0.84V14.71
			h-4.56V21.192z M76.365,15.79h2.4v1.561h-2.4V15.79z M80.926,21.192h1.08v-2.761h2.16v2.761h1.08V14.71h-4.32V21.192z
			 M82.006,15.79h2.16v1.561h-2.16V15.79z M86.206,15.79h1.68v5.402h1.08V15.79h1.56v-1.08h-4.319V15.79z M91.485,21.192h4.32
			v-1.081h-3.24V15.79h3.24v-1.08h-4.32V21.192z M100.126,17.351h-2.16V14.71h-1.08v6.482h1.08v-2.761h2.16v2.761h1.199V14.71
			h-1.199V17.351z M102.405,21.192h4.32v-1.081h-3.24v-1.681h2.761v-1.08h-2.761V15.79h3.24v-1.08h-4.32V21.192z M107.686,14.71
			v1.08h1.561v5.402h1.079V15.79h1.561v-1.08H107.686z"/>
	</g>
</g>
<g>
	<g>
		<path fill-rule="evenodd" clip-rule="evenodd" fill="#A82030" d="M114.946,21.192h5.279v-3.841h-2.16v1.08h1.08v1.681h-3.119
			V15.79h4.199v-1.08h-5.279V21.192z M121.306,21.192h1.08v-2.761h2.16v2.761h1.08V14.71h-4.32V21.192z M122.386,15.79h2.16v1.561
			h-2.16V15.79z M126.706,21.192h1.08V15.79h1.8v5.402h1.08V15.79h1.8v5.402h1.08V14.71h-6.84V21.192z M134.626,21.192h4.32v-1.081
			h-3.24v-1.681h2.76v-1.08h-2.76V15.79h3.24v-1.08h-4.32V21.192z M144.346,15.79v-1.08h-4.319v3.721h3.239v1.681h-3.239v1.081
			h4.319v-3.841h-3.24V15.79H144.346z"/>
	</g>
</g>
</svg>
