<!DOCTYPE html>
<svg version="1.1" xmlns="http://www.w3.org/2000/svg" xmlns:xlink="http://www.w3.org/1999/xlink" x="0px" y="0px" viewBox="0 0 69.06 6.482" xml:space="preserve">
<g>
	<g>
		<path fill-rule="evenodd" clip-rule="evenodd" fill="#FFFFFF" d="M0,6.482h1.079V3.721H2.64v2.761h1.08V3.721h0.84V0H0V6.482z
			 M1.079,1.08h2.4v1.561h-2.4V1.08z M5.64,6.482h1.08V3.721h2.16v2.761h1.08V0H5.64V6.482z M6.72,1.08h2.16v1.561H6.72V1.08z
			 M10.92,1.08h1.68v5.402h1.08V1.08h1.56V0H10.92V1.08z M16.199,6.482h4.32V5.401h-3.24V1.08h3.24V0h-4.32V6.482z M24.84,2.641
			h-2.16V0H21.6v6.482h1.08V3.721h2.16v2.761h1.199V0H24.84V2.641z M27.119,6.482h4.32V5.401h-3.24V3.721h2.761v-1.08h-2.761V1.08
			h3.24V0h-4.32V6.482z M32.399,0v1.08h1.561v5.402h1.079V1.08H36.6V0H32.399z"/>
	</g>
</g>
<g>
	<g>
		<path fill-rule="evenodd" clip-rule="evenodd" fill="#A82030" d="M39.66,6.482h5.279V2.641h-2.16v1.08h1.08v1.681H40.74V1.08
			h4.199V0H39.66V6.482z M46.02,6.482h1.08V3.721h2.16v2.761h1.08V0h-4.32V6.482z M47.1,1.08h2.16v1.561H47.1V1.08z M51.42,6.482
			h1.08V1.08h1.8v5.402h1.08V1.08h1.8v5.402h1.08V0h-6.84V6.482z M59.34,6.482h4.32V5.401h-3.24V3.721h2.76v-1.08h-2.76V1.08h3.24V0
			h-4.32V6.482z M69.06,1.08V0H64.74v3.721h3.239v1.681H64.74v1.081h4.319V2.641h-3.24V1.08H69.06z"/>
	</g>
</g>
</svg>
